<svg viewBox="0 0 233 50" preserveAspectRatio="xMidYMid meet"><g><path d="M225.62 43.25c-.668.673-1.002 1.485-1.002 2.438 0 .96.332 1.777.998 2.453.668.678 1.48 1.016 2.437 1.016.956 0 1.768-.338 2.437-1.015.67-.675 1.004-1.493 1.004-2.452 0-.953-.335-1.765-1.004-2.438-.672-.676-1.485-1.014-2.437-1.014-.95 0-1.76.338-2.432 1.014zm5.268 5.28c-.78.784-1.726 1.176-2.835 1.176-1.11 0-2.052-.392-2.83-1.177-.774-.783-1.16-1.73-1.16-2.842 0-1.102.39-2.043 1.17-2.825.78-.778 1.718-1.167 2.82-1.167 1.11 0 2.054.39 2.835 1.167.782.778 1.173 1.72 1.173 2.825 0 1.108-.39 2.055-1.172 2.84zm-2.08-4.358c-.194-.11-.506-.164-.935-.164h-.66V45.6h.698c.328 0 .574-.032.737-.098.302-.12.453-.35.453-.687 0-.32-.097-.534-.292-.643zm-.83-.693c.544 0 .944.052 1.198.157.455.19.682.56.682 1.113 0 .392-.144.68-.43.867-.154.098-.366.17-.64.212.346.054.6.198.76.43.16.233.24.46.24.682v.32c0 .103.002.212.01.33.007.115.02.19.038.228l.027.054h-.725l-.01-.043c-.005-.014-.008-.03-.012-.05l-.016-.14v-.35c0-.508-.138-.844-.415-1.008-.163-.095-.45-.142-.86-.142h-.612v1.734h-.774V43.48h1.537z" fill="#fff"></path><path fill="#fff" fill-rule="nonzero" d="M51.485 36.554l1.885-17.152.4.027-1.413 16.51-.872.613"></path><path fill="#fff" fill-rule="nonzero" d="M49.115 4.325l-.695.835 4.7 12.018.265-.082-4.27-12.77"></path><path fill="#fff" fill-rule="nonzero" d="M60.354 5.292l-6.35 11.78.29.197 6.75-11.12-.69-.86"></path><path fill="#fff" fill-rule="nonzero" d="M66.103 4.637L54.293 17.27l.33.3L66.078 5.693l.06-.06-.034-.997"></path><path fill="#fff" fill-rule="nonzero" d="M54.606 17.583l.225.45 12.38-4.036.064-1.003-12.667 4.59"></path><path fill="#fff" fill-rule="nonzero" d="M54.816 18.142l-.053.45 16.442 2.06.826-.658-17.213-1.852"></path><path fill="#fff" fill-rule="nonzero" d="M54.758 18.607l-.082.2 10.682 5.7.104.052.782-.525-11.486-5.43"></path><path fill="#fff" fill-rule="nonzero" d="M67.84 32.886l-.082-.082L54.422 19.16l.2-.293L68.75 32.644l-.91.242"></path><path fill="#fff" fill-rule="nonzero" d="M55.363-.038l-1.78 16.907-.02.21.318.015L55.987.59 56 .482l-.637-.52"></path><path fill="#fff" fill-rule="nonzero" d="M40.717 5.26l-.182.772 12.22 11.44.294-.238L40.715 5.26"></path><path fill="#fff" fill-rule="nonzero" d="M40.98 11.077v.964l11.55 5.83.13-.322-11.68-6.47"></path><path fill="#fff" fill-rule="nonzero" d="M35.733 15.01l.426.867 16.28 2.47.096-.44-16.804-2.896"></path><path fill="#fff" fill-rule="nonzero" d="M52.457 18.348L39.76 23.036l.656.572 12.213-4.743-.174-.517"></path><path fill="#D0C697" fill-rule="nonzero" d="M47.772 29.825l5.12-10.664.478.243-4.238 10.216-1.36.206"></path><path fill="#fff" fill-rule="nonzero" d="M57.68 30.415L53.77 19.43l.57-.218 4.11 10.23"></path><path fill="#fff" fill-rule="nonzero" d="M41.886 31.6h-.976l11.81-12.657.173.218"></path><path fill="#fff" fill-rule="nonzero" d="M21.272 19.234h1.18V8.054h3.673V7H17.58v1.054h3.692"></path><path d="M25.242 9.21h-.86v8.945h.86V13.93h4.6v4.225h.857V9.21h-.858v3.97h-4.6V9.21zm10.848 8.18H32.4v-3.46h3.368v-.75H32.4v-3.164h3.528v-.764h-4.385v8.903h4.547v-.764zM17.054 45.178H4.01V32.94h11.907v-2.656H4.01V19.09h12.475v-2.702H.975v31.496h16.08v-2.706zm99.952.028h2.215V24.23h6.89v-1.974h-16.027v1.975h6.924v20.977zM19.892 22.19v23.08h11.595V43.3h-9.38V22.19H19.89h.002zM73.11 37.146l4.157-10.49c.31-.833.657-1.63.934-2.46.21.83.557 1.662.866 2.46l4.19 10.49H73.11zm6.44-14.957h-2.663l-9.314 23.08h2.25l2.492-6.194h11.767l2.528 6.194H89l-9.45-23.08zm25.53 13.43c0 2.7.033 5.434.45 8.136-.523-1.627-1.32-3.254-2.946-5.92L93.067 22.19H90.47v23.08h2.077V30.91c0-2.287 0-4.568-.277-6.817.66 2.037 1.87 3.945 2.976 5.78l9.416 15.397h2.49V22.19h-2.073v13.43zm37.12 9.747c-6.416 0-10.616-5.26-10.616-13.198 0-6.51 3.185-13.295 10.57-13.295 7.525 0 10.618 6.97 10.618 13.568 0 7.756-4.202 12.923-10.572 12.923zm-.275-29.125c-8.908 0-13.433 7.756-13.433 15.927 0 9.413 5.585 15.83 13.756 15.83 8.26 0 13.614-6.14 13.614-15.6 0-8.54-4.66-16.16-13.937-16.16v.002zm15.8 28.87h2.206V34.276h8.326V32.35h-8.324v-8.087h8.67V22.3h-10.874v22.81l-.002.002zm13.858 0h2.205V34.276h8.325V32.35h-8.325v-8.087h8.67V22.3h-10.875V45.112zm14.064-22.947h2.203v22.947h-2.203V22.165zm16.358 1.857c1.755 0 3.303.31 5.09 1.067l.208-2.1c-1.79-.69-3.164-.93-5.164-.93-7.224 0-11.97 4.543-11.97 11.425 0 7.466 4.85 11.733 12.11 11.733 1.995 0 3.405-.242 4.987-.828l-.134-2.2c-1.62.755-3.132 1.064-5.06 1.064-5.885 0-9.566-3.683-9.566-9.53 0-5.85 3.75-9.704 9.497-9.704v.002zm11.092 10.254h8.64V32.35h-8.64v-8.12h9.053v-1.963h-11.255v22.845h11.666v-1.96H213.1v-8.876zm-154.333.617h5.4v7.753c-1.696.556-2.77.76-4.326.76-5.955 0-10.005-3.946-10.005-9.795 0-5.744 3.843-9.55 9.66-9.55 1.868 0 3.494.345 5.676 1.176l.31-2.077c-1.733-.73-3.703-1.073-5.99-1.073-7.234 0-11.976 4.534-11.976 11.493 0 7.024 5.02 11.8 11.977 11.8 2.527 0 4.5-.343 6.888-1.242V32.92h-7.616v1.973h.002zm-13.722-10.63v-1.97h-11.32V45.27h11.736V43.3h-9.52v-8.927h8.688v-1.94h-8.688v-8.17h9.104z" fill="#fff" fill-rule="nonzero"></path></g></svg>
