<svg viewBox="0 0 63 63" preserveAspectRatio="xMidYMid meet"><g fill="none"><path stroke="#BCAC9A" fill="#BCAC9A" d="M27.764 62.25l3.175-28.89.673.047-2.38 27.806z"></path><path stroke="#6E4D31" fill="#6E4D31" d="M22.602 9.375l7.916 20.24.446-.138-7.19-21.51z"></path><path stroke="#74378B" fill="#74378B" d="M32.007 29.437l.488.332 11.37-18.726L42.7 9.597z"></path><path stroke="#7B76AD" fill="#7B76AD" d="M52.384 8.494L32.494 29.77l.555.506L52.34 10.272l.1-.1-.056-1.68z"></path><path d="M33.4 31.056l20.847-6.798.11-1.69-19.18 6.95-2.156.78.38.758z" stroke="#2C4E4B" fill="#2C4E4B"></path><path stroke="#0C406B" fill="#0C406B" d="M33.374 31.24l-.09.757 27.693 3.47 1.39-1.11-28.99-3.118z"></path><path stroke="#ACCDEC" fill="#ACCDEC" d="M33.277 32.022l-.138.337 17.99 9.6.174.087 1.317-.883-19.343-9.145z"></path><path stroke="#6D624F" fill="#6D624F" d="M55.31 56.07l-.14-.137-22.46-22.98.338-.493 23.794 23.204-1.533.407z"></path><path stroke="#612D44" fill="#612D44" d="M34.296.62l-2.998 28.475-.034.354.536.026 3.545-27.798.023-.182L34.296.62z"></path><path d="M9.322 10.843l20.58 19.268.496-.4-18.322-17.79-2.45-2.377-.304 1.3z" stroke="#FECF8C" fill="#FECF8C"></path><path d="M10.072 20.964l19.452 9.82.22-.545-14.558-8.065-5.114-2.833v1.622z" stroke="#FAA85F" fill="#FAA85F"></path><path d="M1.952 27.424l27.42 4.16.162-.74L4.26 26.487l-3.027-.522.72 1.458z" stroke="#C9252B" fill="#C9252B"></path><path stroke="#B95630" fill="#B95630" d="M8.017 39.482l1.105.963 20.57-7.988-.292-.87z"></path><path stroke="#D0C697" fill="#D0C697" d="M21.51 50.916l8.624-17.96.805.407L23.8 50.57z"></path><path stroke="#AAA26F" fill="#AAA26F" d="M38.198 51.91l-6.585-18.502.96-.367 6.922 17.23z"></path><path stroke="#F15B25" fill="#F15B25" d="M11.597 53.905H9.954l19.89-21.317.292.367z"></path></g></svg>
